<svg xmlns="http://www.w3.org/2000/svg" width="56.967" height="56.925"><path style="stroke:#fff;stroke-width:4;stroke-miterlimit:4;stroke-dasharray:none;stroke-opacity:1;fill:#000;fill-opacity:1" d="M21.203 0v6.444c7.127.638 11.882 6.515 11.882 13.277 0 6.216-4.254 11.429-10.015 12.887l-1.96 6.148-.273.82c3.506-.228 7.012-1.478 10.062-3.572l1.209 1.82c7.983 7.792 11.42 10.584 19.925 19.012.594.407 2.163.09 3.553-1.297 1.385-1.392 1.757-3.011 1.292-3.534-7.03-7.266-14.558-14.27-19.035-19.902l-1.797-1.18c2.187-3.189 3.576-7.035 3.576-11.202C39.622 9.223 31.516.638 21.203 0ZM17.01.162C7.403 1.505 0 9.771 0 19.721c0 10.018 7.128 18.393 16.76 19.693v-6.625c-6.079-1.205-10.316-6.603-10.316-13.068 0-5.671 3.528-10.501 8.538-12.434L16.848.755z"/><path style="stroke:none;stroke-width:.63796204;stroke-miterlimit:4;stroke-dasharray:none;stroke-opacity:1;fill:#06f;fill-opacity:1" d="m18.9-.496-7.903 27.592 7.92-3.493v18.882l9.757-30.343-9.774 4.08z"/></svg>